<svg width="1200" height="630" viewBox="0 0 1200 630" fill="none" xmlns="http://www.w3.org/2000/svg">
  <rect width="1200" height="630" fill="#070707"/>
  <circle cx="1030" cy="120" r="240" fill="#F97316" fill-opacity="0.18"/>
  <circle cx="160" cy="560" r="240" fill="#7C3AED" fill-opacity="0.14"/>
  <rect x="74" y="74" width="1052" height="482" rx="36" fill="url(#bg)"/>
  <rect x="74.5" y="74.5" width="1051" height="481" rx="35.5" stroke="#1E293B"/>
  <rect x="120" y="118" width="112" height="112" rx="24" fill="url(#logo)"/>
  <path d="M146 153L176 138L206 153L176 168L146 153Z" fill="#090909"/>
  <path d="M146 176L176 191L206 176" stroke="#090909" stroke-width="10" stroke-linecap="round" stroke-linejoin="round"/>
  <path d="M146 199L176 214L206 199" stroke="#090909" stroke-width="10" stroke-linecap="round" stroke-linejoin="round"/>
  <text x="266" y="164" fill="#F8FAFC" font-family="'Space Grotesk', Arial, sans-serif" font-size="54" font-weight="700">
    Digital CMO AI
  </text>
  <text x="266" y="220" fill="#CBD5E1" font-family="'Space Grotesk', Arial, sans-serif" font-size="28" font-weight="500">
    Your AI-Powered Chief Marketing Officer
  </text>
  <text x="120" y="330" fill="#F8FAFC" font-family="'Space Grotesk', Arial, sans-serif" font-size="56" font-weight="700">
    8 domains. 10 modules. One growth OS.
  </text>
  <text x="120" y="388" fill="#94A3B8" font-family="'Space Grotesk', Arial, sans-serif" font-size="28" font-weight="500">
    Managed HubSpot, GA4, and Stripe pilot connections with demo fallback
  </text>
  <text x="120" y="428" fill="#94A3B8" font-family="'Space Grotesk', Arial, sans-serif" font-size="28" font-weight="500">
    for every other connector, plus investor-ready and in-app demo paths.
  </text>
  <rect x="120" y="470" width="260" height="54" rx="27" fill="#F97316"/>
  <text x="158" y="505" fill="#090909" font-family="'JetBrains Mono', monospace" font-size="22" font-weight="700">
    digital-cmo-ai.vercel.app
  </text>
  <defs>
    <linearGradient id="bg" x1="74" y1="74" x2="1126" y2="556" gradientUnits="userSpaceOnUse">
      <stop stop-color="#111111"/>
      <stop offset="1" stop-color="#0A0A0A"/>
    </linearGradient>
    <linearGradient id="logo" x1="120" y1="118" x2="232" y2="230" gradientUnits="userSpaceOnUse">
      <stop stop-color="#F97316"/>
      <stop offset="0.5" stop-color="#FB923C"/>
      <stop offset="1" stop-color="#F43F5E"/>
    </linearGradient>
  </defs>
</svg>
